<svg width="132" height="50" viewBox="0 0 132 50" fill="none" xmlns="http://www.w3.org/2000/svg">
<path d="M1.118 19.926C1.118 18.158 1.51667 16.572 2.314 15.168C3.11133 13.7467 4.19467 12.6373 5.564 11.84C6.95067 11.0427 8.48467 10.644 10.166 10.644C12.142 10.644 13.8667 11.1207 15.34 12.074C16.8133 13.0273 17.888 14.3793 18.564 16.13H15.73C15.2273 15.038 14.4993 14.1973 13.546 13.608C12.61 13.0187 11.4833 12.724 10.166 12.724C8.90067 12.724 7.76533 13.0187 6.76 13.608C5.75467 14.1973 4.966 15.038 4.394 16.13C3.822 17.2047 3.536 18.47 3.536 19.926C3.536 21.3647 3.822 22.63 4.394 23.722C4.966 24.7967 5.75467 25.6287 6.76 26.218C7.76533 26.8073 8.90067 27.102 10.166 27.102C11.4833 27.102 12.61 26.816 13.546 26.244C14.4993 25.6547 15.2273 24.814 15.73 23.722H18.564C17.888 25.4553 16.8133 26.7987 15.34 27.752C13.8667 28.688 12.142 29.156 10.166 29.156C8.48467 29.156 6.95067 28.766 5.564 27.986C4.19467 27.1887 3.11133 26.088 2.314 24.684C1.51667 23.28 1.118 21.694 1.118 19.926ZM34.722 14.752V29H32.356V26.894C31.9053 27.622 31.2727 28.194 30.458 28.61C29.6607 29.0087 28.7767 29.208 27.806 29.208C26.6967 29.208 25.7 28.9827 24.816 28.532C23.932 28.064 23.23 27.3707 22.71 26.452C22.2073 25.5333 21.956 24.4153 21.956 23.098V14.752H24.296V22.786C24.296 24.19 24.6513 25.2733 25.362 26.036C26.0727 26.7813 27.0433 27.154 28.274 27.154C29.5393 27.154 30.536 26.764 31.264 25.984C31.992 25.204 32.356 24.0687 32.356 22.578V14.752H34.722ZM45.6588 14.492C47.3922 14.492 48.7962 15.0207 49.8708 16.078C50.9455 17.118 51.4828 18.626 51.4828 20.602V29H49.1428V20.94C49.1428 19.5187 48.7875 18.4353 48.0768 17.69C47.3662 16.9273 46.3955 16.546 45.1648 16.546C43.9168 16.546 42.9202 16.936 42.1748 17.716C41.4468 18.496 41.0828 19.6313 41.0828 21.122V29H38.7168V14.752H41.0828V16.78C41.5508 16.052 42.1835 15.4887 42.9808 15.09C43.7955 14.6913 44.6882 14.492 45.6588 14.492ZM62.4197 14.492C63.4944 14.492 64.465 14.726 65.3317 15.194C66.1984 15.6447 66.8744 16.3293 67.3597 17.248C67.8624 18.1667 68.1137 19.2847 68.1137 20.602V29H65.7737V20.94C65.7737 19.5187 65.4184 18.4353 64.7077 17.69C63.997 16.9273 63.0264 16.546 61.7957 16.546C60.5477 16.546 59.551 16.936 58.8057 17.716C58.0777 18.496 57.7137 19.6313 57.7137 21.122V29H55.3477V9.76H57.7137V16.78C58.1817 16.052 58.823 15.4887 59.6377 15.09C60.4697 14.6913 61.397 14.492 62.4197 14.492ZM71.0946 21.824C71.0946 20.368 71.3892 19.094 71.9786 18.002C72.5679 16.8927 73.3739 16.0347 74.3966 15.428C75.4366 14.8213 76.5892 14.518 77.8546 14.518C79.1026 14.518 80.1859 14.7867 81.1046 15.324C82.0232 15.8613 82.7079 16.5373 83.1586 17.352V14.752H85.5506V29H83.1586V26.348C82.6906 27.18 81.9886 27.8733 81.0526 28.428C80.1339 28.9653 79.0592 29.234 77.8286 29.234C76.5632 29.234 75.4192 28.922 74.3966 28.298C73.3739 27.674 72.5679 26.7987 71.9786 25.672C71.3892 24.5453 71.0946 23.2627 71.0946 21.824ZM83.1586 21.85C83.1586 20.7753 82.9419 19.8393 82.5086 19.042C82.0752 18.2447 81.4859 17.638 80.7406 17.222C80.0126 16.7887 79.2066 16.572 78.3226 16.572C77.4386 16.572 76.6326 16.78 75.9046 17.196C75.1766 17.612 74.5959 18.2187 74.1626 19.016C73.7292 19.8133 73.5126 20.7493 73.5126 21.824C73.5126 22.916 73.7292 23.8693 74.1626 24.684C74.5959 25.4813 75.1766 26.0967 75.9046 26.53C76.6326 26.946 77.4386 27.154 78.3226 27.154C79.2066 27.154 80.0126 26.946 80.7406 26.53C81.4859 26.0967 82.0752 25.4813 82.5086 24.684C82.9419 23.8693 83.1586 22.9247 83.1586 21.85ZM96.4909 14.492C98.2242 14.492 99.6282 15.0207 100.703 16.078C101.778 17.118 102.315 18.626 102.315 20.602V29H99.9749V20.94C99.9749 19.5187 99.6195 18.4353 98.9089 17.69C98.1982 16.9273 97.2275 16.546 95.9969 16.546C94.7489 16.546 93.7522 16.936 93.0069 17.716C92.2789 18.496 91.9149 19.6313 91.9149 21.122V29H89.5489V14.752H91.9149V16.78C92.3829 16.052 93.0155 15.4887 93.8129 15.09C94.6275 14.6913 95.5202 14.492 96.4909 14.492ZM109.066 16.702V25.1C109.066 25.7933 109.213 26.2873 109.508 26.582C109.802 26.8593 110.314 26.998 111.042 26.998H112.784V29H110.652C109.334 29 108.346 28.6967 107.688 28.09C107.029 27.4833 106.7 26.4867 106.7 25.1V16.702H104.854V14.752H106.7V11.164H109.066V14.752H112.784V16.702H109.066ZM114.766 21.824C114.766 20.368 115.061 19.094 115.65 18.002C116.24 16.8927 117.046 16.0347 118.068 15.428C119.108 14.8213 120.261 14.518 121.526 14.518C122.774 14.518 123.858 14.7867 124.776 15.324C125.695 15.8613 126.38 16.5373 126.83 17.352V14.752H129.222V29H126.83V26.348C126.362 27.18 125.66 27.8733 124.724 28.428C123.806 28.9653 122.731 29.234 121.5 29.234C120.235 29.234 119.091 28.922 118.068 28.298C117.046 27.674 116.24 26.7987 115.65 25.672C115.061 24.5453 114.766 23.2627 114.766 21.824ZM126.83 21.85C126.83 20.7753 126.614 19.8393 126.18 19.042C125.747 18.2447 125.158 17.638 124.412 17.222C123.684 16.7887 122.878 16.572 121.994 16.572C121.11 16.572 120.304 16.78 119.576 17.196C118.848 17.612 118.268 18.2187 117.834 19.016C117.401 19.8133 117.184 20.7493 117.184 21.824C117.184 22.916 117.401 23.8693 117.834 24.684C118.268 25.4813 118.848 26.0967 119.576 26.53C120.304 26.946 121.11 27.154 121.994 27.154C122.878 27.154 123.684 26.946 124.412 26.53C125.158 26.0967 125.747 25.4813 126.18 24.684C126.614 23.8693 126.83 22.9247 126.83 21.85ZM118.64 13.218C118.762 12.334 119.048 11.658 119.498 11.19C119.966 10.722 120.547 10.488 121.24 10.488C121.57 10.488 121.847 10.5487 122.072 10.67C122.315 10.774 122.601 10.93 122.93 11.138C123.173 11.3113 123.39 11.45 123.58 11.554C123.771 11.6407 123.979 11.684 124.204 11.684C124.499 11.684 124.75 11.5887 124.958 11.398C125.166 11.2073 125.296 10.93 125.348 10.566H126.7C126.596 11.4327 126.31 12.1 125.842 12.568C125.374 13.036 124.794 13.27 124.1 13.27C123.771 13.27 123.476 13.218 123.216 13.114C122.974 12.9927 122.696 12.8193 122.384 12.594C122.107 12.4207 121.882 12.2907 121.708 12.204C121.552 12.1173 121.362 12.074 121.136 12.074C120.842 12.074 120.59 12.1693 120.382 12.36C120.192 12.5507 120.07 12.8367 120.018 13.218H118.64Z" fill="#FE9600"/>
<path d="M15.328 35.152H10.216V40.336H8.176V35.152H3.088V33.304H8.176V28.096H10.216V33.304H15.328V35.152Z" fill="#FE9600"/>
<path d="M25.328 41.152H20.216V46.336H18.176V41.152H13.088V39.304H18.176V34.096H20.216V39.304H25.328V41.152Z" fill="#FE9600"/>
<path d="M75.72 38.75C75.72 37.72 75.945 36.8 76.395 35.99C76.845 35.17 77.46 34.535 78.24 34.085C79.02 33.625 79.89 33.395 80.85 33.395C82.02 33.395 83.02 33.675 83.85 34.235C84.69 34.785 85.3 35.565 85.68 36.575H84.45C84.15 35.865 83.69 35.31 83.07 34.91C82.46 34.51 81.72 34.31 80.85 34.31C80.08 34.31 79.385 34.49 78.765 34.85C78.155 35.21 77.675 35.73 77.325 36.41C76.975 37.08 76.8 37.86 76.8 38.75C76.8 39.64 76.975 40.42 77.325 41.09C77.675 41.76 78.155 42.275 78.765 42.635C79.385 42.995 80.08 43.175 80.85 43.175C81.72 43.175 82.46 42.98 83.07 42.59C83.69 42.19 84.15 41.64 84.45 40.94H85.68C85.3 41.94 84.69 42.715 83.85 43.265C83.01 43.815 82.01 44.09 80.85 44.09C79.89 44.09 79.02 43.865 78.24 43.415C77.46 42.955 76.845 42.32 76.395 41.51C75.945 40.7 75.72 39.78 75.72 38.75ZM91.3573 44.12C90.5873 44.12 89.8923 43.95 89.2723 43.61C88.6623 43.26 88.1773 42.77 87.8173 42.14C87.4673 41.5 87.2923 40.755 87.2923 39.905C87.2923 39.055 87.4723 38.315 87.8323 37.685C88.1923 37.045 88.6823 36.555 89.3023 36.215C89.9223 35.865 90.6173 35.69 91.3873 35.69C92.1573 35.69 92.8523 35.865 93.4723 36.215C94.1023 36.555 94.5923 37.045 94.9423 37.685C95.3023 38.315 95.4823 39.055 95.4823 39.905C95.4823 40.745 95.3023 41.485 94.9423 42.125C94.5823 42.765 94.0873 43.26 93.4573 43.61C92.8273 43.95 92.1273 44.12 91.3573 44.12ZM91.3573 43.205C91.8973 43.205 92.3973 43.085 92.8573 42.845C93.3173 42.595 93.6873 42.225 93.9673 41.735C94.2573 41.235 94.4023 40.625 94.4023 39.905C94.4023 39.185 94.2623 38.58 93.9823 38.09C93.7023 37.59 93.3323 37.22 92.8723 36.98C92.4123 36.73 91.9123 36.605 91.3723 36.605C90.8323 36.605 90.3323 36.73 89.8723 36.98C89.4123 37.22 89.0423 37.59 88.7623 38.09C88.4923 38.58 88.3573 39.185 88.3573 39.905C88.3573 40.625 88.4923 41.235 88.7623 41.735C89.0423 42.225 89.4073 42.595 89.8573 42.845C90.3173 43.085 90.8173 43.205 91.3573 43.205ZM98.4463 32.9V44H97.3963V32.9H98.4463ZM101.874 32.9V44H100.824V32.9H101.874ZM111.662 39.485C111.662 39.845 111.652 40.12 111.632 40.31H104.837C104.867 40.93 105.017 41.46 105.287 41.9C105.557 42.34 105.912 42.675 106.352 42.905C106.792 43.125 107.272 43.235 107.792 43.235C108.472 43.235 109.042 43.07 109.502 42.74C109.972 42.41 110.282 41.965 110.432 41.405H111.542C111.342 42.205 110.912 42.86 110.252 43.37C109.602 43.87 108.782 44.12 107.792 44.12C107.022 44.12 106.332 43.95 105.722 43.61C105.112 43.26 104.632 42.77 104.282 42.14C103.942 41.5 103.772 40.755 103.772 39.905C103.772 39.055 103.942 38.31 104.282 37.67C104.622 37.03 105.097 36.54 105.707 36.2C106.317 35.86 107.012 35.69 107.792 35.69C108.572 35.69 109.252 35.86 109.832 36.2C110.422 36.54 110.872 37 111.182 37.58C111.502 38.15 111.662 38.785 111.662 39.485ZM110.597 39.455C110.607 38.845 110.482 38.325 110.222 37.895C109.972 37.465 109.627 37.14 109.187 36.92C108.747 36.7 108.267 36.59 107.747 36.59C106.967 36.59 106.302 36.84 105.752 37.34C105.202 37.84 104.897 38.545 104.837 39.455H110.597ZM117.018 35.69C117.788 35.69 118.458 35.87 119.028 36.23C119.598 36.59 120.008 37.045 120.258 37.595V35.81H121.308V44.21C121.308 44.96 121.143 45.625 120.813 46.205C120.493 46.785 120.043 47.23 119.463 47.54C118.883 47.86 118.223 48.02 117.483 48.02C116.433 48.02 115.558 47.77 114.858 47.27C114.168 46.77 113.738 46.09 113.568 45.23H114.603C114.783 45.8 115.123 46.255 115.623 46.595C116.133 46.935 116.753 47.105 117.483 47.105C118.013 47.105 118.488 46.99 118.908 46.76C119.328 46.54 119.658 46.21 119.898 45.77C120.138 45.33 120.258 44.81 120.258 44.21V42.185C119.998 42.745 119.583 43.21 119.013 43.58C118.453 43.94 117.788 44.12 117.018 44.12C116.268 44.12 115.593 43.945 114.993 43.595C114.403 43.245 113.938 42.75 113.598 42.11C113.268 41.47 113.103 40.73 113.103 39.89C113.103 39.05 113.268 38.315 113.598 37.685C113.938 37.045 114.403 36.555 114.993 36.215C115.593 35.865 116.268 35.69 117.018 35.69ZM120.258 39.905C120.258 39.245 120.123 38.665 119.853 38.165C119.583 37.665 119.213 37.28 118.743 37.01C118.283 36.74 117.773 36.605 117.213 36.605C116.633 36.605 116.113 36.735 115.653 36.995C115.193 37.255 114.828 37.635 114.558 38.135C114.298 38.625 114.168 39.21 114.168 39.89C114.168 40.56 114.298 41.15 114.558 41.66C114.828 42.16 115.193 42.545 115.653 42.815C116.113 43.075 116.633 43.205 117.213 43.205C117.773 43.205 118.283 43.07 118.743 42.8C119.213 42.53 119.583 42.145 119.853 41.645C120.123 41.145 120.258 40.565 120.258 39.905ZM131.115 39.485C131.115 39.845 131.105 40.12 131.085 40.31H124.29C124.32 40.93 124.47 41.46 124.74 41.9C125.01 42.34 125.365 42.675 125.805 42.905C126.245 43.125 126.725 43.235 127.245 43.235C127.925 43.235 128.495 43.07 128.955 42.74C129.425 42.41 129.735 41.965 129.885 41.405H130.995C130.795 42.205 130.365 42.86 129.705 43.37C129.055 43.87 128.235 44.12 127.245 44.12C126.475 44.12 125.785 43.95 125.175 43.61C124.565 43.26 124.085 42.77 123.735 42.14C123.395 41.5 123.225 40.755 123.225 39.905C123.225 39.055 123.395 38.31 123.735 37.67C124.075 37.03 124.55 36.54 125.16 36.2C125.77 35.86 126.465 35.69 127.245 35.69C128.025 35.69 128.705 35.86 129.285 36.2C129.875 36.54 130.325 37 130.635 37.58C130.955 38.15 131.115 38.785 131.115 39.485ZM130.05 39.455C130.06 38.845 129.935 38.325 129.675 37.895C129.425 37.465 129.08 37.14 128.64 36.92C128.2 36.7 127.72 36.59 127.2 36.59C126.42 36.59 125.755 36.84 125.205 37.34C124.655 37.84 124.35 38.545 124.29 39.455H130.05Z" fill="#FE9600"/>
</svg>
